<?xml version="1.0" encoding="UTF-8" standalone="no"?>
<svg
   version="1.1"
   x="0px"
   y="0px"
   viewBox="0 0 89.800003 89.800003"
   enable-background="new 0 0 100 100"
   xml:space="preserve"
   id="svg2"
   sodipodi:docname="logo-small.svg"
   width="89.800003"
   height="89.800003"
   inkscape:version="1.4.2 (2aeb623e1d, 2025-05-12)"
   inkscape:export-filename="../acc81fe6/icon.png"
   inkscape:export-xdpi="96"
   inkscape:export-ydpi="96"
   xmlns:inkscape="http://www.inkscape.org/namespaces/inkscape"
   xmlns:sodipodi="http://sodipodi.sourceforge.net/DTD/sodipodi-0.dtd"
   xmlns="http://www.w3.org/2000/svg"
   xmlns:svg="http://www.w3.org/2000/svg"><defs
     id="defs2"><rect
       x="100"
       y="0"
       width="167.76649"
       height="81.218277"
       id="rect3" /><rect
       x="100"
       y="0"
       width="78.934013"
       height="45.050762"
       id="rect2" /></defs><sodipodi:namedview
     id="namedview2"
     pagecolor="#ffffff"
     bordercolor="#000000"
     borderopacity="0.25"
     inkscape:showpageshadow="2"
     inkscape:pageopacity="0.0"
     inkscape:pagecheckerboard="0"
     inkscape:deskcolor="#d1d1d1"
     showgrid="false"
     showguides="true"
     inkscape:zoom="8"
     inkscape:cx="45.875"
     inkscape:cy="60.875"
     inkscape:window-width="1862"
     inkscape:window-height="1008"
     inkscape:window-x="0"
     inkscape:window-y="0"
     inkscape:window-maximized="1"
     inkscape:current-layer="svg2" /><g
     id="g5"
     transform="matrix(1.1500917,0,0,1.0240714,16.537508,1.1239093)"
     style="fill:#aa0000;fill-opacity:1"><path
       fill="#000000"
       d="M 42.294683,0 34.509067,14.26597 32.89527,13.354585 c 0.324948,-1.009854 0.715541,-2.270257 0.750553,-2.436561 0.06017,-0.276807 -0.177244,-0.440922 -0.177244,-0.440922 0,0 -1.822771,-1.04049 -2.350127,-1.342461 -0.524074,-0.297595 -0.706789,-0.124727 -0.98469,10e-4 -0.275714,0.118163 -2.147718,1.447494 -2.838096,2.703521 -0.690377,1.252745 -0.824951,3.572236 -0.782282,3.874208 0.04267,0.30416 -0.0088,0.557992 0.521886,0.853399 0.525169,0.300877 2.350127,1.339177 2.350127,1.339177 0,0 0.262584,0.119258 0.461711,-0.07659 0.119256,-0.120351 0.970466,-1.114888 1.645526,-1.920145 l 1.619268,0.919044 -3.903749,7.148849 -1.613798,-0.913573 c 0.32276,-1.010948 0.713353,-2.271351 0.750553,-2.437655 0.06018,-0.276807 -0.179433,-0.443111 -0.179433,-0.443111 0,0 -1.82277,-1.038301 -2.347938,-1.340272 -0.525168,-0.296501 -0.708977,-0.125821 -0.986878,0 -0.275713,0.119257 -2.145531,1.448588 -2.837002,2.70571 -0.689283,1.25165 -0.823857,3.568954 -0.781187,3.873113 0.04267,0.303066 -0.0088,0.556897 0.52298,0.853399 0.52298,0.299783 2.349033,1.339178 2.349033,1.339178 0,0 0.260396,0.120351 0.459521,-0.07769 0.119258,-0.120352 0.970468,-1.113794 1.645527,-1.920146 l 1.621456,0.921232 -3.900466,7.149944 -1.618174,-0.916856 c 0.322759,-1.008761 0.712259,-2.271351 0.749458,-2.436561 0.05799,-0.276807 -0.178338,-0.442016 -0.178338,-0.442016 0,0 -1.822771,-1.040489 -2.349032,-1.340273 -0.524074,-0.297594 -0.707883,-0.125821 -0.985785,0 -0.277901,0.118163 -2.146624,1.448589 -2.838096,2.702427 -0.688188,1.253839 -0.823856,3.572237 -0.780093,3.875302 0.04048,0.30416 -0.0088,0.556898 0.519697,0.853399 0.524074,0.299783 2.349034,1.339178 2.349034,1.339178 0,0 0.265866,0.119256 0.462804,-0.07769 0.119257,-0.119256 0.969372,-1.112699 1.645526,-1.91905 l 1.625832,0.922325 -3.900466,7.149944 -1.621456,-0.919043 c 0.320572,-1.010949 0.71226,-2.270259 0.749459,-2.436561 0.06017,-0.277902 -0.177244,-0.442017 -0.177244,-0.442017 0,0 -1.826054,-1.040489 -2.349033,-1.34246 -0.526262,-0.295407 -0.710071,-0.124728 -0.989067,10e-4 -0.275713,0.119258 -2.144435,1.447495 -2.834813,2.704616 -0.689283,1.25165 -0.823857,3.571143 -0.781187,3.874208 0.04267,0.304159 -0.0088,0.557991 0.519697,0.852304 0.524074,0.300877 2.351221,1.340272 2.351221,1.340272 0,0 0.26149,0.119257 0.460616,-0.07769 0.119257,-0.120351 0.969373,-1.113794 1.645527,-1.920145 l 1.630209,0.925608 -3.900466,7.148849 -1.625834,-0.920137 c 0.320572,-1.009854 0.712259,-2.271352 0.74946,-2.437655 0.05798,-0.275713 -0.177245,-0.439828 -0.177245,-0.439828 0,0 -1.826053,-1.042678 -2.3490328,-1.342461 -0.526261,-0.297595 -0.710071,-0.125822 -0.986877,0 -0.277902,0.119257 -2.147719,1.448588 -2.837002,2.703521 -0.689283,1.253838 -0.826045,3.571142 -0.783376,3.875302 0.04267,0.303066 -0.0066,0.556897 0.521886,0.853398 0.524074,0.299783 2.350127,1.338084 2.350127,1.338084 0,0 0.262583,0.120351 0.46171,-0.07659 0.119257,-0.120351 0.969373,-1.114888 1.6455268,-1.920145 l 1.632397,0.92889 -3.9004668,7.14885 -1.628021,-0.922327 c 0.321666,-1.009854 0.710071,-2.272445 0.74727,-2.437654 0.06018,-0.276807 -0.175056,-0.443111 -0.175056,-0.443111 0,0 -1.824958,-1.038301 -2.349032,-1.340272 -0.526263,-0.297595 -0.710071,-0.125821 -0.987972,0 -0.276808,0.120351 -2.146625,1.447494 -2.83590799,2.704615 -0.689283,1.252744 -0.826046,3.570049 -0.781188,3.875303 0.04049,0.300877 -0.0088,0.556896 0.520792,0.852303 0.52407399,0.298689 2.34903299,1.338084 2.34903299,1.338084 0,0 0.262584,0.120351 0.459522,-0.0755 0.119257,-0.121446 0.969373,-1.115983 1.645526,-1.92124 l 1.640057,0.929985 -3.467204,6.354533 c 0,0 11.1860788,3.6346 11.1860788,13.771436 H 34.84605 c 4.555833,-40.5504 13.252834,-63.69718 13.252834,-63.69718 z m -28.02756,69.83531 c -1.204603,0.644425 -2.693674,0.169585 -3.322782,-1.053619 -0.631295,-1.224298 -0.168491,-2.739626 1.03502,-3.382957 1.205697,-0.642236 2.692579,-0.169585 3.323875,1.053619 0.629107,1.226486 0.168491,2.738532 -1.036113,3.382957 z m 5.148835,-9.793289 c -1.203511,0.645519 -2.69258,0.170679 -3.322781,-1.053619 -0.631297,-1.223204 -0.166304,-2.738533 1.035018,-3.381863 1.205698,-0.642237 2.693674,-0.168492 3.322782,1.052524 0.631295,1.226487 0.170679,2.739626 -1.035019,3.382958 z m 5.151023,-9.792196 c -1.204605,0.645519 -2.693674,0.169586 -3.323876,-1.054712 -0.630201,-1.223204 -0.168492,-2.738533 1.036112,-3.380769 1.204605,-0.644426 2.690392,-0.169586 3.323877,1.052524 0.628013,1.226486 0.168491,2.738532 -1.036113,3.382957 z m 5.14774,-9.793289 c -1.201321,0.644425 -2.690392,0.169586 -3.322782,-1.053618 -0.630201,-1.223204 -0.166303,-2.739627 1.036113,-3.381863 1.205699,-0.642237 2.694769,-0.169586 3.322782,1.052524 0.630202,1.225391 0.168491,2.738532 -1.036113,3.382957 z m 5.152118,-9.792195 c -1.205699,0.644425 -2.694769,0.169585 -3.322782,-1.054712 -0.63239,-1.223204 -0.17068,-2.738533 1.033924,-3.38077 1.205699,-0.644424 2.69258,-0.168491 3.322782,1.052525 0.630202,1.226486 0.170679,2.739626 -1.033924,3.382957 z m 5.14774,-9.794383 c -1.20351,0.645519 -2.69258,0.170679 -3.322782,-1.053618 -0.630202,-1.223204 -0.166304,-2.738533 1.036113,-3.38077 1.20351,-0.644424 2.69258,-0.170679 3.322782,1.052525 0.630201,1.226486 0.168491,2.739626 -1.036113,3.381863 z"
       id="path1"
       style="fill:#aa0000;fill-opacity:1;stroke-width:1.0941" /></g><path
     style="fill:#ffffff;stroke:#aa0000;stroke-width:0.225;stroke-linejoin:round"
     d="m 59.913675,22.370861 c -2.172969,-1.082836 -1.720236,-3.975039 0.713633,-4.558915 1.213936,-0.291218 2.585679,0.328733 3.106104,1.403787 0.45822,0.946558 0.342995,1.716311 -0.380216,2.540003 -0.845028,0.962433 -2.241419,1.212165 -3.439521,0.615125 z"
     id="path2" /><path
     style="fill:#ffffff;stroke:#aa0000;stroke-width:0.225;stroke-linejoin:round"
     d="m 54.606078,32.638766 c -0.722521,-0.194303 -1.12595,-0.453885 -1.52298,-0.979944 -1.259446,-1.66875 0.01147,-3.851815 2.237618,-3.843577 2.446704,0.0091 3.654213,2.548694 1.971694,4.146874 -0.686602,0.652185 -1.766149,0.924106 -2.686332,0.676647 z"
     id="path3" /><path
     style="fill:#ffffff;stroke:#aa0000;stroke-width:0.225;stroke-linejoin:round"
     d="m 48.527724,42.635818 c -0.752789,-0.24497 -1.333459,-0.726304 -1.639928,-1.359385 -0.322162,-0.665499 -0.330021,-1.244375 -0.02581,-1.901433 0.664105,-1.434399 2.375732,-1.980192 3.871868,-1.234636 1.861442,0.927596 1.848134,3.356437 -0.02365,4.316203 -0.62791,0.321963 -1.519016,0.395151 -2.182477,0.179251 z"
     id="path4" /><path
     style="fill:#ffffff;stroke:#aa0000;stroke-width:0.225;stroke-linejoin:round"
     d="m 42.439895,52.612746 c -1.77091,-0.648207 -2.253873,-2.748188 -0.923084,-4.013679 0.840193,-0.798969 2.101413,-0.993635 3.170689,-0.489389 0.727646,0.343141 1.099489,0.711652 1.369034,1.356763 0.829899,1.986227 -1.425509,3.948325 -3.616639,3.146305 z"
     id="path5" /><path
     style="fill:#ffffff;stroke:#aa0000;stroke-width:0.225;stroke-linejoin:round"
     d="m 36.501284,62.648062 c -0.619493,-0.197281 -1.455522,-1.076401 -1.626113,-1.709927 -0.47871,-1.777792 1.355915,-3.449388 3.306667,-3.012829 0.73719,0.164976 1.571784,0.789889 1.898363,1.421424 0.402261,0.777886 0.136841,2.12998 -0.537898,2.740147 -0.704186,0.636797 -2.03336,0.882081 -3.041019,0.561185 z"
     id="path6" /><path
     style="fill:#ffffff;stroke:#aa0000;stroke-width:0.225;stroke-linejoin:round"
     d="m 30.1875,72.446037 c -0.90039,-0.524555 -1.25,-1.106967 -1.25,-2.082361 0,-0.664892 0.05536,-0.85841 0.376144,-1.314828 1.424817,-2.027267 4.841069,-1.235575 5.02937,1.16552 0.07357,0.93807 -0.323482,1.651088 -1.22056,2.191882 -0.578722,0.348876 -0.789423,0.406084 -1.491924,0.405077 -0.675826,-9.69e-4 -0.926678,-0.06447 -1.44303,-0.36529 z"
     id="path7" /></svg>
