<?xml version="1.0" encoding="UTF-8" standalone="no"?>
<svg
   version="1.1"
   x="0px"
   y="0px"
   viewBox="0 0 212 88"
   enable-background="new 0 0 100 100"
   xml:space="preserve"
   id="svg2"
   sodipodi:docname="logo.svg"
   width="212"
   height="88"
   inkscape:version="1.4.2 (2aeb623e1d, 2025-05-12)"
   xmlns:inkscape="http://www.inkscape.org/namespaces/inkscape"
   xmlns:sodipodi="http://sodipodi.sourceforge.net/DTD/sodipodi-0.dtd"
   xmlns="http://www.w3.org/2000/svg"
   xmlns:svg="http://www.w3.org/2000/svg"><path
     style="font-size:86.2492px;font-family:'Pirata One';-inkscape-font-specification:'Pirata One';fill:#1a1a1a;stroke-width:0.924099"
     d="m 72.651367,65.279644 q 1.773333,0 3.639999,-1.275245 V 53.72274 q 0,-4.86187 -3.826665,-5.499492 v -1.753462 l 9.426664,-4.543058 q 1.959999,0.717325 3.826665,2.391083 1.866666,1.594056 1.866666,3.028706 v 17.853424 q 0,0.637623 -10.266663,4.064842 -10.17333,3.347517 -12.506662,3.347517 -2.24,0 -5.226665,-3.427219 -2.893333,-3.427221 -2.893333,-8.209388 V 18.573812 q 0,-0.55792 10.639997,-3.905437 10.733329,-3.42722 12.319995,-3.42722 0.560001,0 1.306667,2.311381 0.746667,2.311381 1.68,5.579195 1.026666,3.267814 2.053332,4.86187 1.12,1.514353 4.106665,1.514353 v 1.594055 q -2.053332,0.797028 -6.999997,2.869301 -4.853332,1.992569 -5.226665,1.992569 -1.4,0 -3.546666,-6.455925 -2.146665,-6.535628 -3.453332,-6.535628 -0.933333,0 -1.68,0.797027 v 39.612284 q 0,5.898007 4.759998,5.898007 z m 18.75995,-33.315765 10.266663,-4.782167 q 0.65333,0.159406 1.49333,0.478217 0.93334,0.239108 2.42667,1.514353 1.58666,1.275244 1.58666,2.8693 0.46667,-0.159405 4.38667,-2.470786 4.01334,-2.391084 5.13334,-2.391084 2.98666,0 5.59999,3.347517 2.61334,3.347517 2.61334,6.137115 v 3.905437 l -9.61334,4.622761 -1.58667,-1.115839 q 0,-6.695034 -1.49332,-7.651468 -1.68001,-1.036135 -5.04001,-1.036135 v 25.425188 q 0,4.86187 3.82668,5.499492 v 1.753461 L 101.58465,72.6123 Q 99.531314,71.894976 97.757981,70.30092 95.984649,68.627162 95.984649,67.192511 V 40.731186 q 0,-3.506923 -1.493334,-5.260384 -1.399999,-1.753462 -3.079998,-1.753462 z m 51.239903,0.637623 v 28.214786 q 0,4.86187 3.82667,5.499492 v 1.753461 l -9.42667,4.543059 q -2.05333,-0.717324 -3.82666,-2.31138 -1.77333,-1.673758 -1.77333,-3.108409 V 38.977725 q 0,-4.861871 -3.82667,-5.499493 v -1.753461 l 9.42666,-4.543059 q 2.05333,0.717325 3.82667,2.391084 1.77333,1.594055 1.77333,3.028706 z M 130.05123,17.218864 v -4.86187 q 0,-0.239108 3.82666,-1.43465 3.92,-1.2752458 4.48,-1.2752458 0.65333,0 1.77333,1.3549488 1.21333,1.354947 1.21333,2.789597 v 5.818303 q 0,0.239109 -3.73332,1.514353 -3.73334,1.195542 -4.57334,1.195542 -0.84,0 -1.96,-1.354947 -1.02666,-1.43465 -1.02666,-3.746031 z m 21.93326,3.028706 q 0,-1.514353 9.51999,-5.180681 9.52,-3.746031 11.57333,-3.746031 0.74667,0 1.21334,0.637622 0.46666,0.55792 0.74666,1.036136 l 0.84001,1.514353 q 0.65332,1.036136 1.30665,1.992569 1.21334,1.912867 3.08001,1.912867 v 1.594056 q -1.49334,0.55792 -4.01334,1.753462 -5.88,2.709894 -6.34666,2.709894 -1.4,0 -2.61333,-3.506922 -1.12,-3.506923 -2.42667,-3.506923 -1.68,0 -1.68,2.391084 v 11.716309 h 9.52 v 1.912867 l -4.66667,1.99257 h -4.85333 v 25.345486 q 0,4.86187 3.82667,5.499492 v 1.753461 l -9.42667,4.543059 q -2.05333,-0.717324 -3.82666,-2.31138 -1.77333,-1.673758 -1.77333,-3.108409 V 35.470802 h -5.69333 V 33.71734 l 5.69333,-2.151975 z m 29.86663,0 q 0,-1.514353 9.51998,-5.180681 9.52,-3.746031 11.57334,-3.746031 0.74667,0 1.21334,0.637622 0.46666,0.55792 0.74666,1.036136 l 0.84,1.514353 q 0.65334,1.036136 1.30666,1.992569 1.21334,1.912867 3.08,1.912867 v 1.594056 q -1.49333,0.55792 -4.01333,1.753462 -5.88,2.709894 -6.34667,2.709894 -1.4,0 -2.61332,-3.506922 -1.12001,-3.506923 -2.42667,-3.506923 -1.68,0 -1.68,2.391084 v 11.716309 h 9.52 v 1.912867 l -4.66667,1.99257 h -4.85333 v 25.345486 q 0,4.86187 3.82667,5.499492 v 1.753461 l -9.42667,4.543059 q -2.05333,-0.717324 -3.82667,-2.31138 -1.77332,-1.673758 -1.77332,-3.108409 V 35.470802 h -5.69333 V 33.71734 l 5.69333,-2.151975 z"
     id="text4"
     aria-label="Griff" /><defs
     id="defs2"><rect
       x="100"
       y="0"
       width="167.76649"
       height="81.218277"
       id="rect3" /><rect
       x="100"
       y="0"
       width="78.934013"
       height="45.050762"
       id="rect2" /></defs><sodipodi:namedview
     id="namedview2"
     pagecolor="#ffffff"
     bordercolor="#000000"
     borderopacity="0.25"
     inkscape:showpageshadow="2"
     inkscape:pageopacity="0.0"
     inkscape:pagecheckerboard="0"
     inkscape:deskcolor="#d1d1d1"
     showgrid="false"
     showguides="true"
     inkscape:zoom="6.304"
     inkscape:cx="117.62373"
     inkscape:cy="75.348985"
     inkscape:window-width="1862"
     inkscape:window-height="1008"
     inkscape:window-x="0"
     inkscape:window-y="0"
     inkscape:window-maximized="1"
     inkscape:current-layer="svg2"><sodipodi:guide
       position="50.052201,1.1502975"
       orientation="0,-1"
       id="guide4"
       inkscape:locked="false" /></sodipodi:namedview><g
     id="g5"
     transform="translate(1.9533167,1.3460155)"><path
       fill="#000000"
       d="M 42.294683,0 34.509067,14.26597 32.89527,13.354585 c 0.324948,-1.009854 0.715541,-2.270257 0.750553,-2.436561 0.06017,-0.276807 -0.177244,-0.440922 -0.177244,-0.440922 0,0 -1.822771,-1.04049 -2.350127,-1.342461 -0.524074,-0.297595 -0.706789,-0.124727 -0.98469,10e-4 -0.275714,0.118163 -2.147718,1.447494 -2.838096,2.703521 -0.690377,1.252745 -0.824951,3.572236 -0.782282,3.874208 0.04267,0.30416 -0.0088,0.557992 0.521886,0.853399 0.525169,0.300877 2.350127,1.339177 2.350127,1.339177 0,0 0.262584,0.119258 0.461711,-0.07659 0.119256,-0.120351 0.970466,-1.114888 1.645526,-1.920145 l 1.619268,0.919044 -3.903749,7.148849 -1.613798,-0.913573 c 0.32276,-1.010948 0.713353,-2.271351 0.750553,-2.437655 0.06018,-0.276807 -0.179433,-0.443111 -0.179433,-0.443111 0,0 -1.82277,-1.038301 -2.347938,-1.340272 -0.525168,-0.296501 -0.708977,-0.125821 -0.986878,0 -0.275713,0.119257 -2.145531,1.448588 -2.837002,2.70571 -0.689283,1.25165 -0.823857,3.568954 -0.781187,3.873113 0.04267,0.303066 -0.0088,0.556897 0.52298,0.853399 0.52298,0.299783 2.349033,1.339178 2.349033,1.339178 0,0 0.260396,0.120351 0.459521,-0.07769 0.119258,-0.120352 0.970468,-1.113794 1.645527,-1.920146 l 1.621456,0.921232 -3.900466,7.149944 -1.618174,-0.916856 c 0.322759,-1.008761 0.712259,-2.271351 0.749458,-2.436561 0.05799,-0.276807 -0.178338,-0.442016 -0.178338,-0.442016 0,0 -1.822771,-1.040489 -2.349032,-1.340273 -0.524074,-0.297594 -0.707883,-0.125821 -0.985785,0 -0.277901,0.118163 -2.146624,1.448589 -2.838096,2.702427 -0.688188,1.253839 -0.823856,3.572237 -0.780093,3.875302 0.04048,0.30416 -0.0088,0.556898 0.519697,0.853399 0.524074,0.299783 2.349034,1.339178 2.349034,1.339178 0,0 0.265866,0.119256 0.462804,-0.07769 0.119257,-0.119256 0.969372,-1.112699 1.645526,-1.91905 l 1.625832,0.922325 -3.900466,7.149944 -1.621456,-0.919043 c 0.320572,-1.010949 0.71226,-2.270259 0.749459,-2.436561 0.06017,-0.277902 -0.177244,-0.442017 -0.177244,-0.442017 0,0 -1.826054,-1.040489 -2.349033,-1.34246 -0.526262,-0.295407 -0.710071,-0.124728 -0.989067,10e-4 -0.275713,0.119258 -2.144435,1.447495 -2.834813,2.704616 -0.689283,1.25165 -0.823857,3.571143 -0.781187,3.874208 0.04267,0.304159 -0.0088,0.557991 0.519697,0.852304 0.524074,0.300877 2.351221,1.340272 2.351221,1.340272 0,0 0.26149,0.119257 0.460616,-0.07769 0.119257,-0.120351 0.969373,-1.113794 1.645527,-1.920145 l 1.630209,0.925608 -3.900466,7.148849 -1.625834,-0.920137 c 0.320572,-1.009854 0.712259,-2.271352 0.74946,-2.437655 0.05798,-0.275713 -0.177245,-0.439828 -0.177245,-0.439828 0,0 -1.826053,-1.042678 -2.3490328,-1.342461 -0.526261,-0.297595 -0.710071,-0.125822 -0.986877,0 -0.277902,0.119257 -2.147719,1.448588 -2.837002,2.703521 -0.689283,1.253838 -0.826045,3.571142 -0.783376,3.875302 0.04267,0.303066 -0.0066,0.556897 0.521886,0.853398 0.524074,0.299783 2.350127,1.338084 2.350127,1.338084 0,0 0.262583,0.120351 0.46171,-0.07659 0.119257,-0.120351 0.969373,-1.114888 1.6455268,-1.920145 l 1.632397,0.92889 -3.9004668,7.14885 -1.628021,-0.922327 c 0.321666,-1.009854 0.710071,-2.272445 0.74727,-2.437654 0.06018,-0.276807 -0.175056,-0.443111 -0.175056,-0.443111 0,0 -1.824958,-1.038301 -2.349032,-1.340272 -0.526263,-0.297595 -0.710071,-0.125821 -0.987972,0 -0.276808,0.120351 -2.146625,1.447494 -2.83590799,2.704615 -0.689283,1.252744 -0.826046,3.570049 -0.781188,3.875303 0.04049,0.300877 -0.0088,0.556896 0.520792,0.852303 0.52407399,0.298689 2.34903299,1.338084 2.34903299,1.338084 0,0 0.262584,0.120351 0.459522,-0.0755 0.119257,-0.121446 0.969373,-1.115983 1.645526,-1.92124 l 1.640057,0.929985 -3.467204,6.354533 c 0,0 11.1860788,3.6346 11.1860788,13.771436 H 34.84605 c 4.555833,-40.5504 13.252834,-63.69718 13.252834,-63.69718 z m -28.02756,69.83531 c -1.204603,0.644425 -2.693674,0.169585 -3.322782,-1.053619 -0.631295,-1.224298 -0.168491,-2.739626 1.03502,-3.382957 1.205697,-0.642236 2.692579,-0.169585 3.323875,1.053619 0.629107,1.226486 0.168491,2.738532 -1.036113,3.382957 z m 5.148835,-9.793289 c -1.203511,0.645519 -2.69258,0.170679 -3.322781,-1.053619 -0.631297,-1.223204 -0.166304,-2.738533 1.035018,-3.381863 1.205698,-0.642237 2.693674,-0.168492 3.322782,1.052524 0.631295,1.226487 0.170679,2.739626 -1.035019,3.382958 z m 5.151023,-9.792196 c -1.204605,0.645519 -2.693674,0.169586 -3.323876,-1.054712 -0.630201,-1.223204 -0.168492,-2.738533 1.036112,-3.380769 1.204605,-0.644426 2.690392,-0.169586 3.323877,1.052524 0.628013,1.226486 0.168491,2.738532 -1.036113,3.382957 z m 5.14774,-9.793289 c -1.201321,0.644425 -2.690392,0.169586 -3.322782,-1.053618 -0.630201,-1.223204 -0.166303,-2.739627 1.036113,-3.381863 1.205699,-0.642237 2.694769,-0.169586 3.322782,1.052524 0.630202,1.225391 0.168491,2.738532 -1.036113,3.382957 z m 5.152118,-9.792195 c -1.205699,0.644425 -2.694769,0.169585 -3.322782,-1.054712 -0.63239,-1.223204 -0.17068,-2.738533 1.033924,-3.38077 1.205699,-0.644424 2.69258,-0.168491 3.322782,1.052525 0.630202,1.226486 0.170679,2.739626 -1.033924,3.382957 z m 5.14774,-9.794383 c -1.20351,0.645519 -2.69258,0.170679 -3.322782,-1.053618 -0.630202,-1.223204 -0.166304,-2.738533 1.036113,-3.38077 1.20351,-0.644424 2.69258,-0.170679 3.322782,1.052525 0.630201,1.226486 0.168491,2.739626 -1.036113,3.381863 z"
       id="path1"
       style="fill:#aa0000;stroke-width:1.0941" /></g><path
     style="font-size:9.33333px;font-family:'DejaVu Sans';-inkscape-font-specification:'DejaVu Sans';fill:#4d4d4d;stroke-width:1.16387"
     d="m 56.706755,79.40454 h 7.796778 v 0.774739 h -3.271808 v 6.029295 h -1.253163 v -6.029295 h -3.271807 z m 11.099451,0.906901 -1.691464,3.386066 h 3.389099 z M 67.102458,79.40454 h 1.413667 l 3.512563,6.804034 h -1.296377 l -0.839557,-1.745442 h -4.154578 l -0.839559,1.745442 h -1.314894 z m 7.518984,3.554686 v 2.492838 h 2.000125 q 1.006234,0 1.487744,-0.305339 0.487684,-0.309895 0.487684,-0.943359 0,-0.63802 -0.487684,-0.938801 -0.48151,-0.305339 -1.487744,-0.305339 z m 0,-2.798176 v 2.05078 h 1.845792 q 0.913637,0 1.358109,-0.25065 0.450644,-0.255209 0.450644,-0.77474 0,-0.514974 -0.450644,-0.770182 -0.444472,-0.255208 -1.358109,-0.255208 z m -1.246991,-0.75651 h 3.185382 q 1.426014,0 2.197668,0.4375 0.77165,0.437499 0.77165,1.24414 0,0.624349 -0.395085,0.993489 -0.395086,0.369141 -1.160566,0.460286 0.91981,0.145834 1.426013,0.610677 0.512378,0.460287 0.512378,1.152995 0,0.911458 -0.839558,1.408202 -0.839557,0.496745 -2.389036,0.496745 h -3.308846 z m 15.068848,6.804034 -3.518742,-6.804034 h 1.302552 l 2.919936,5.728513 2.926126,-5.728513 h 1.296376 l -3.51258,6.804034 z M 94.71531,79.40454 h 1.247001 v 6.804034 H 94.71531 Z m 3.728631,0 h 5.827519 v 0.774739 h -4.580528 v 2.014322 h 4.389158 v 0.77474 h -4.389158 v 2.465494 h 4.691638 v 0.774739 h -5.938629 z m 7.167109,0 h 1.25934 l 1.93838,5.7513 1.93222,-5.7513 h 1.40135 l 1.93836,5.7513 1.93223,-5.7513 h 1.2655 l -2.31494,6.804034 h -1.56799 l -1.94456,-5.906248 -1.9631,5.906248 h -1.568 z m 13.3218,0 h 5.82754 v 0.774739 h -4.58053 v 2.014322 h 4.38915 v 0.77474 h -4.38915 v 2.465494 h 4.69164 v 0.774739 h -5.93865 z m 12.3588,3.613931 q 0.40126,0.10026 0.77782,0.428385 0.38275,0.328125 0.76548,0.902344 l 1.26551,1.859374 h -1.33959 l -1.17908,-1.745442 q -0.45681,-0.683594 -0.88895,-0.906901 -0.42594,-0.223307 -1.16674,-0.223307 h -1.35811 v 2.87565 h -1.24698 V 79.40454 h 2.815 q 1.58035,0 2.35817,0.48763 0.77781,0.48763 0.77781,1.472005 0,0.642577 -0.40744,1.066405 -0.40124,0.423828 -1.1729,0.587891 z m -3.12366,-2.857421 v 2.415364 h 1.56802 q 0.90128,0 1.35809,-0.305339 0.463,-0.309895 0.463,-0.9069 0,-0.597005 -0.463,-0.897787 -0.45681,-0.305338 -1.35809,-0.305338 z m 13.38973,2.38802 q -0.56175,0.36914 -0.82721,0.738281 -0.25928,0.364583 -0.25928,0.765625 0,0.665364 0.65436,1.107421 0.65436,0.442057 1.64207,0.442057 0.58646,0 1.09884,-0.141276 0.51239,-0.145833 0.96304,-0.4375 z m 0.87042,-0.510417 3.13599,2.369791 q 0.36422,-0.405598 0.56794,-0.865885 0.20372,-0.464843 0.24076,-0.984374 h 1.14821 q -0.0741,0.601562 -0.39507,1.189452 -0.32101,0.587891 -0.89513,1.162109 l 1.72232,1.298828 h -1.55564 l -0.88277,-0.669922 q -0.64201,0.405599 -1.34576,0.60612 -0.70374,0.195963 -1.51244,0.195963 -1.48775,0 -2.43225,-0.624348 -0.9445,-0.628906 -0.9445,-1.608724 0,-0.583333 0.4136,-1.093749 0.41361,-0.514974 1.24082,-0.966146 -0.29631,-0.287109 -0.45065,-0.569661 -0.15433,-0.287109 -0.15433,-0.560547 0,-0.738281 0.68524,-1.184895 0.68521,-0.451172 1.82109,-0.451172 0.51238,0 1.01857,0.08203 0.51239,0.08203 1.03712,0.246094 v 0.829427 q -0.53708,-0.214193 -1.02476,-0.323568 -0.48769,-0.113932 -0.90746,-0.113932 -0.6482,0 -1.05561,0.255208 -0.40127,0.250651 -0.40127,0.651693 0,0.232421 0.17903,0.4694 0.18518,0.232422 0.74695,0.660808 z m 12.42054,-1.877603 v 2.55664 h 1.56798 q 0.87043,0 1.34577,-0.332682 0.47533,-0.332683 0.47533,-0.947917 0,-0.610677 -0.47533,-0.943359 -0.47534,-0.332682 -1.34577,-0.332682 z m -1.247,-0.75651 h 2.81498 q 1.54949,0 2.33965,0.519531 0.79636,0.514974 0.79636,1.51302 0,1.007161 -0.79636,1.522135 -0.79016,0.514974 -2.33965,0.514974 h -1.56798 v 2.734374 h -1.247 z m 7.62391,0 h 1.247 v 6.029295 h 4.48793 v 0.774739 h -5.73493 z m 10.41424,0.906901 -1.69147,3.386066 h 3.3891 z m -0.70375,-0.906901 h 1.41367 l 3.51255,6.804034 h -1.29638 l -0.83954,-1.745442 h -4.15459 l -0.83956,1.745442 h -1.31489 z m 4.02494,0 h 1.33958 l 2.55572,2.798176 2.53719,-2.798176 h 1.3396 l -3.25946,3.563801 v 3.240233 h -1.25318 v -3.240233 z m 8.98821,0 h 5.82752 v 0.774739 h -4.58053 v 2.014322 h 4.38916 v 0.77474 h -4.38916 v 2.465494 h 4.69165 v 0.774739 h -5.93864 z m 12.35878,3.613931 q 0.40128,0.10026 0.77783,0.428385 0.38274,0.328125 0.76547,0.902344 l 1.26553,1.859374 h -1.33958 l -1.1791,-1.745442 q -0.45682,-0.683594 -0.88896,-0.906901 -0.42593,-0.223307 -1.16672,-0.223307 h -1.35811 v 2.87565 h -1.247 V 79.40454 h 2.81499 q 1.58034,0 2.35818,0.48763 0.77783,0.48763 0.77783,1.472005 0,0.642577 -0.40743,1.066405 -0.40127,0.423828 -1.17293,0.587891 z m -3.12364,-2.857421 v 2.415364 h 1.56799 q 0.9013,0 1.35811,-0.305339 0.46299,-0.309895 0.46299,-0.9069 0,-0.597005 -0.46299,-0.897787 -0.45681,-0.305338 -1.35811,-0.305338 z"
     id="text5"
     aria-label="TAB VIEWER &amp; PLAYER " /></svg>
